name C:\Users\u0150099\Documents\master_thesis\3dpredictsim\Results\debug\Fal_s1_mtj_sc_cspx10_oy_TrackAnkleQSubtQ_MTPm_k1_d01_MTJm_nl_MG_exp_v2_table_d01_PF_Natali2010_x2_ls146_ig21.mot
datacolumns 128
datarows 4
range 1.65099578 1.68401569
endheader
time	pelvis_tilt	pelvis_list	pelvis_rotation	pelvis_tx	pelvis_ty	pelvis_tz	hip_flexion_l	hip_adduction_l	hip_rotation_l	hip_flexion_r	hip_adduction_r	hip_rotation_r	knee_angle_l	knee_angle_r	ankle_angle_l	ankle_angle_r	subtalar_angle_l	subtalar_angle_r	mtj_angle_l	mtj_angle_r	mtp_angle_l	mtp_angle_r	lumbar_extension	lumbar_bending	lumbar_rotation	arm_flex_l	arm_add_l	arm_rot_l	arm_flex_r	arm_add_r	arm_rot_r	elbow_flex_l	elbow_flex_r	pro_sup_l	pro_sup_r	glut_med1_l/activation	glut_med2_l/activation	glut_med3_l/activation	glut_min1_l/activation	glut_min2_l/activation	glut_min3_l/activation	semimem_l/activation	semiten_l/activation	bifemlh_l/activation	bifemsh_l/activation	sar_l/activation	add_long_l/activation	add_brev_l/activation	add_mag1_l/activation	add_mag2_l/activation	add_mag3_l/activation	tfl_l/activation	pect_l/activation	grac_l/activation	glut_max1_l/activation	glut_max2_l/activation	glut_max3_l/activation	iliacus_l/activation	psoas_l/activation	quad_fem_l/activation	gem_l/activation	peri_l/activation	rect_fem_l/activation	vas_med_l/activation	vas_int_l/activation	vas_lat_l/activation	med_gas_l/activation	lat_gas_l/activation	soleus_l/activation	tib_post_l/activation	flex_dig_l/activation	flex_hal_l/activation	tib_ant_l/activation	per_brev_l/activation	per_long_l/activation	per_tert_l/activation	ext_dig_l/activation	ext_hal_l/activation	ercspn_l/activation	intobl_l/activation	extobl_l/activation	glut_med1_r/activation	glut_med2_r/activation	glut_med3_r/activation	glut_min1_r/activation	glut_min2_r/activation	glut_min3_r/activation	semimem_r/activation	semiten_r/activation	bifemlh_r/activation	bifemsh_r/activation	sar_r/activation	add_long_r/activation	add_brev_r/activation	add_mag1_r/activation	add_mag2_r/activation	add_mag3_r/activation	tfl_r/activation	pect_r/activation	grac_r/activation	glut_max1_r/activation	glut_max2_r/activation	glut_max3_r/activation	iliacus_r/activation	psoas_r/activation	quad_fem_r/activation	gem_r/activation	peri_r/activation	rect_fem_r/activation	vas_med_r/activation	vas_int_r/activation	vas_lat_r/activation	med_gas_r/activation	lat_gas_r/activation	soleus_r/activation	tib_post_r/activation	flex_dig_r/activation	flex_hal_r/activation	tib_ant_r/activation	per_brev_r/activation	per_long_r/activation	per_tert_r/activation	ext_dig_r/activation	ext_hal_r/activation	ercspn_r/activation	intobl_r/activation	extobl_r/activation	
          1.65099578	         -2.91667155	          1.15646779	         -4.13834318	          2.19582438	          0.91006282	          0.00418649	         27.37024470	          2.19201022	         -3.30805329	        -17.84869573	          1.56176564	          7.03229908	         -7.05868463	         -8.94677670	          1.99386311	          3.33144577	         -0.94886952	          2.51786172	         -0.89161036	         -1.50208578	          5.68774543	         21.08622793	         -2.84133163	          0.14082576	          1.85188948	         -7.00948767	        -13.46133125	          4.22837723	          3.54306501	        -14.22621835	         19.38432079	         27.74057792	         36.02050867	         86.51662706	         86.51662706	          0.05000017	          0.05000169	          0.05000041	          0.05425227	          0.05000519	          0.05000132	          0.24741337	          0.08287296	          0.27325186	          0.08279330	          0.05000045	          0.12913516	          0.10773198	          0.09488017	          0.08746107	          0.07927977	          0.05000023	          0.05000844	          0.12176955	          0.05000163	          0.05000136	          0.07114854	          0.05917175	          0.05917243	          0.11568452	          0.05002213	          0.05001421	          0.05000006	          0.05000065	          0.05000061	          0.05000052	          0.06814832	          0.06500844	          0.05000005	          0.06298490	          0.08728173	          0.06245786	          0.30531713	          0.13631364	          0.12862164	          0.14215745	          0.54258555	          0.05000044	          0.05000006	          0.13328808	          0.15264451	          0.35630017	          0.09807550	          0.07002695	          0.46448224	          0.26471335	          0.11120204	          0.05000071	          0.05000010	          0.05000010	          0.07090309	          0.12391799	          0.05000006	          0.05000008	          0.05000015	          0.05000049	          0.05000032	          0.66113664	          0.05000038	          0.05000032	          0.05258059	          0.05000520	          0.05000094	          0.48938227	          0.73589832	          0.05000042	          0.05008458	          0.05917221	          0.39634153	          0.08109266	          0.08657279	          0.06969126	          0.34694547	          0.51340680	          0.29511855	          0.65289780	          0.40485987	          0.62099218	          0.05000001	          0.05000002	          0.44512608	          0.05000005	          0.05000001	          0.15364067	          0.05000000	          0.05000003	          0.05000002	
          1.66200241	         -2.92460144	          1.32160314	         -4.40103367	          2.21307110	          0.90912353	          0.00390407	         27.04335927	          2.57054960	         -3.20286737	        -17.93955507	          1.21542179	          6.97551527	         -6.90696422	        -10.44507650	          1.74956095	          2.62463570	         -1.26305296	          3.04856148	         -0.53938822	         -2.79671861	          4.51320897	         24.44016883	         -2.68601720	         -0.15063093	          1.97596522	         -7.71803907	        -13.44970721	          3.89611710	          3.19863407	        -14.17267587	         19.35888509	         27.15684430	         37.26064229	         86.51662706	         86.51662706	          0.14259045	          0.05000008	          0.05917184	          0.05000007	          0.05000009	          0.05000039	          0.23174476	          0.07002702	          0.25298898	          0.07002705	          0.05000209	          0.10914028	          0.11778580	          0.13085776	          0.07626650	          0.10108692	          0.05000072	          0.05917081	          0.12543874	          0.05000875	          0.06103815	          0.09416513	          0.05000038	          0.05000054	          0.24835356	          0.05629523	          0.05000122	          0.05000000	          0.05000003	          0.05000003	          0.05000003	          0.05917219	          0.05917219	          0.05470378	          0.08599041	          0.07375238	          0.05277669	          0.32455717	          0.14373130	          0.16141290	          0.17458495	          0.55659641	          0.05000005	          0.05000002	          0.11262732	          0.13392848	          0.32807064	          0.08287296	          0.05917218	          0.39248423	          0.22368054	          0.09396478	          0.05000077	          0.05000009	          0.05000007	          0.05991252	          0.10470972	          0.05000009	          0.05000007	          0.05000012	          0.05000042	          0.05000032	          0.61000919	          0.05000027	          0.05000015	          0.05000102	          0.05000060	          0.05000043	          0.41484795	          0.74744183	          0.05000003	          0.05000012	          0.05000004	          0.34971748	          0.08506921	          0.09585436	          0.08173435	          0.29316595	          0.43382440	          0.24937265	          0.60475197	          0.40448522	          0.60691528	          0.05000000	          0.05000039	          0.42485109	          0.05000004	          0.05000001	          0.12982506	          0.05000000	          0.05000001	          0.05000018	
          1.67300905	         -2.92883623	          1.49307596	         -4.64572273	          2.23066510	          0.90825907	          0.00359129	         26.73095220	          2.95243040	         -3.06497556	        -17.95481041	          0.85473987	          6.89619270	         -7.42158391	        -12.02473644	          1.11670155	          1.69523851	         -1.62584326	          3.61669568	         -0.18367390	         -4.24550790	          3.38537735	         28.14816805	         -2.51411225	         -0.45675333	          2.09279464	         -8.43676492	        -13.45926422	          3.78002969	          2.77068687	        -14.11160240	         19.25659319	         26.53444249	         38.50007473	         86.51662706	         86.51662706	          0.12048859	          0.05917148	          0.05000010	          0.05917216	          0.05917193	          0.05000047	          0.19582235	          0.05917225	          0.21377353	          0.05917227	          0.05000022	          0.09222304	          0.09952808	          0.20625467	          0.18646786	          0.14292650	          0.05000026	          0.05000079	          0.10599471	          0.05917195	          0.05157691	          0.15598534	          0.05000027	          0.05483300	          0.47072226	          0.10506362	          0.05000018	          0.07002706	          0.07002692	          0.07002694	          0.07002693	          0.05000000	          0.05000002	          0.05000000	          0.07266117	          0.06232042	          0.07002701	          0.33783036	          0.26762877	          0.14478852	          0.16480974	          0.59474262	          0.05917224	          0.05000000	          0.09516912	          0.11316842	          0.27721692	          0.07002695	          0.05000002	          0.33164586	          0.18900816	          0.07939945	          0.05000293	          0.05000020	          0.05000015	          0.05062561	          0.08847887	          0.12349992	          0.05000091	          0.05000036	          0.05000089	          0.05000197	          0.58296074	          0.05009691	          0.05000021	          0.05000052	          0.05000034	          0.05000030	          0.35054298	          0.66846546	          0.05000002	          0.05000019	          0.05000030	          0.36335559	          0.07886023	          0.14277770	          0.12987902	          0.24772272	          0.36657790	          0.21071775	          0.52758465	          0.36352242	          0.52167152	          0.05000000	          0.05000002	          0.36746721	          0.05000003	          0.05000000	          0.10970107	          0.05000000	          0.07005911	          0.07009835	
          1.68401569	         -2.93017648	          1.68082508	         -4.87440819	          2.24855302	          0.90743405	          0.00326039	         26.39899024	          3.30147051	         -2.88176078	        -17.90427120	          0.47234273	          6.77973416	         -8.54169811	        -13.63552860	          0.20635684	          0.44359900	         -2.04858863	          4.17236151	          0.05486196	         -5.77842199	          2.27952043	         32.17574317	         -2.32863553	         -0.78287292	          2.19985925	         -9.15828815	        -13.48981600	          3.85520525	          2.26803252	        -14.05198041	         19.11359440	         25.87267766	         39.75380610	         86.51662706	         86.51662706	          0.34764509	          0.05000002	          0.27035273	          0.05000006	          0.05000005	          0.05000007	          0.16989842	          0.05000006	          0.18882537	          0.05000007	          0.07002693	          0.08287270	          0.18683558	          0.17428356	          0.15756390	          0.21043278	          0.05000016	          0.07003656	          0.08956468	          0.05000003	          0.17871105	          0.22601480	          0.06623686	          0.05917228	          0.39775630	          0.08877793	          0.09820562	          0.05917228	          0.05917223	          0.05917223	          0.05917222	          0.06625744	          0.07002692	          0.06400121	          0.06139807	          0.05917260	          0.05917229	          0.49042677	          0.23879819	          0.12234506	          0.44431790	          0.62427451	          0.05000004	          0.05000000	          0.08041710	          0.09562635	          0.25370904	          0.05917219	          0.05000006	          0.28023795	          0.15971030	          0.06709187	          0.05000054	          0.05000014	          0.05000021	          0.05000002	          0.07476396	          0.18094509	          0.08539140	          0.05917225	          0.05917229	          0.05917227	          0.62110593	          0.08113119	          0.05917184	          0.05000201	          0.05000201	          0.05917147	          0.29620583	          0.65743260	          0.05917215	          0.05000057	          0.05000002	          0.30703237	          0.12561008	          0.13698196	          0.12408244	          0.20932357	          0.30975519	          0.17805469	          0.44580451	          0.30717338	          0.44080802	          0.05000000	          0.05000001	          0.34781126	          0.05000000	          0.05000000	          0.09269647	          0.05000061	          0.05919935	          0.05923252	
